<?xml version="1.0" encoding="UTF-8"?><svg id="Layer_2" xmlns="http://www.w3.org/2000/svg" viewBox="0 0 1139 1139"><defs><style>.cls-1,.cls-2,.cls-3,.cls-4,.cls-5{stroke-miterlimit:10;}.cls-1,.cls-4{stroke-width:6.5px;}.cls-1,.cls-5{fill:#000;stroke:#fff;}.cls-2{fill:#232323;stroke-width:18px;}.cls-2,.cls-3,.cls-4{stroke:#000;}.cls-3,.cls-4{fill:#fff;}.cls-3,.cls-5{stroke-width:7.18px;}</style></defs><g id="Layer_1-2"><path class="cls-2" d="M569.5,9h511.49c27.05,0,49.01,21.96,49.01,49.01v511.49c0,309.35-251.15,560.5-560.5,560.5h0c-309.35,0-560.5-251.15-560.5-560.5h0C9,260.15,260.15,9,569.5,9Z"/><path class="cls-1" d="M319.52,645.52c0,1.31,1.07,2.37,2.39,2.37h65.76c1.32,0,2.39-1.06,2.39-2.37v-152.48c0-1.7-1.39-3.09-3.11-3.09h-64.31c-1.72,0-3.11,1.38-3.11,3.09v152.48Z"/><path class="cls-1" d="M390.05,351.94c0-3.22,2.63-5.83,5.88-5.83h246.84c2.32,0,4.32,1.33,5.28,3.26.84,1.69,2.8,2.55,4.7,2.55l60.72-.2c3.23-.01,5.7-2.79,5.44-5.99-3.18-38.94-36.05-69.56-76.14-69.56h-317.37c-3.25,0-5.88,2.61-5.88,5.83v65.59c0,3,2.46,5.43,5.48,5.42l65.22-.22c-.04-.29-.17-.55-.17-.85Z"/><path class="cls-5" d="M1056.24,619.15c-52.88,0-96.73-43.85-96.73-96.73v-175.57l-49.01,60.81v114.76c0,50.3,25.8,95.44,64.49,121.24-38.69,25.8-64.49,69.65-64.49,121.24s-42.56,96.73-96.73,96.73c-12.9,0-23.22,10.32-23.22,23.22,0,14.19,10.32,24.51,23.22,24.51,79.96,0,145.74-64.49,145.74-144.45,0-54.17,43.85-96.73,96.73-96.73,12.9,0,24.51-11.61,24.51-24.51,0-14.19-11.61-24.5-24.51-24.5Z"/><path class="cls-3" d="M959.5,302.77c0-81.25-65.77-145.74-145.74-145.74-12.9,0-23.22,10.32-23.22,24.51,0,12.9,10.32,24.51,23.22,24.51,54.17,0,96.73,42.56,96.73,96.73v55.69l49.01-55.21v-.49Z"/><path class="cls-1" d="M870.93,643.39h-374.43c-6.99,0-12.62,5.7-12.48,12.63l.51,24.48c.14,6.73,5.69,12.12,12.48,12.12h149.04v183.35c0,3.58,2.92,6.48,6.53,6.48h65.3c3.59,0,6.53-2.91,6.53-6.48v-183.35h146.52c6.89,0,12.48-5.54,12.48-12.38v-24.48c0-6.84-5.59-12.38-12.48-12.38Z"/><path class="cls-4" d="M870.54,572.06h-151.37v-36.85c0-32.87-10.8-63.26-28.49-88.09-1.8-2.52-1.44-6,1.02-7.89,16.73-12.85,27.47-32.82,27.47-55.56v-5.83c0-.08-.01-.16-.01-.24l-70.51.23s0,0,0,0c0,3.22-2.63,5.83-5.88,5.83h-246.84c-2.94,0-5.27-2.18-5.7-4.98l-70.7.23v91.61h70.53v-11.09c0-3.22,2.63-5.83,5.88-5.83h164.56c48.49,0,88.16,39.34,88.16,87.43v31.02h-152.54c-6.99,0-12.62,5.7-12.48,12.63l.51,24.48c.14,6.73,5.69,12.12,12.48,12.12h373.92c6.89,0,12.48-5.54,12.48-12.38v-24.48c0-6.84-5.59-12.38-12.48-12.38Z"/><path class="cls-5" d="M94.72,619.84c52.88,0,96.73-43.85,96.73-96.73v-175.57s49.01,60.81,49.01,60.81v114.76c0,50.3-25.8,95.44-64.49,121.24,38.69,25.8,64.49,69.65,64.49,121.24,0,52.88,42.56,96.73,96.73,96.73,12.9,0,23.22,10.32,23.22,23.22,0,14.19-10.32,24.51-23.22,24.51-79.96,0-145.74-64.49-145.74-144.45,0-54.17-43.85-96.73-96.73-96.73-12.9,0-24.51-11.61-24.51-24.51,0-14.19,11.61-24.5,24.51-24.5Z"/><path class="cls-3" d="M191.46,303.46c0-81.25,65.77-145.74,145.74-145.74,12.9,0,23.22,10.32,23.22,24.51,0,12.9-10.32,24.51-23.22,24.51-54.17,0-96.73,42.56-96.73,96.73v55.69s-49.01-55.21-49.01-55.21v-.49Z"/></g></svg>